<?xml version="1.0"?>
<svg xmlns="http://www.w3.org/2000/svg" xmlns:xlink="http://www.w3.org/1999/xlink" version="1.1" id="Capa_1" x="0px" y="0px" viewBox="0 0 480.366 480.366" style="enable-background:new 0 0 480.366 480.366;" xml:space="preserve" width="20px" height="20px" class="hovered-paths"><g><g>
	<g>
		<path d="M415.819,232.366c-4.418-97.102-86.716-172.236-183.818-167.818C141.087,68.685,68.32,141.452,64.183,232.366h-48v-116.08    l25.2-19.92c22.294,21.437,57.744,20.742,79.181-1.552c21.437-22.294,20.742-57.744-1.552-79.181    C96.718-5.803,61.268-5.108,39.831,17.186c-17.204,17.892-20.578,44.975-8.288,66.541l-28.24,22.32    c-1.962,1.51-3.114,3.844-3.12,6.32v128c0,4.418,3.582,8,8,8h56c4.418,97.102,86.716,172.236,183.818,167.818    S420.238,329.468,415.819,232.366z M80.183,16.366c22.091,0,40,17.909,40,40s-17.909,40-40,40    c-9.508-0.032-18.685-3.498-25.84-9.76l30.72-24c3.324-2.911,3.659-7.965,0.748-11.289c-2.66-3.038-7.166-3.617-10.508-1.351    l-30.8,24c-2.812-5.442-4.293-11.474-4.32-17.6C40.183,34.275,58.092,16.366,80.183,16.366z M240.183,400.366    c-88.366,0-160-71.634-160-160s71.634-160,160-160s160,71.634,160,160S328.549,400.366,240.183,400.366z" data-original="#000000" class="hovered-path active-path" data-old_color="#000000" fill="#FFA500"/>
	</g>
</g><g>
	<g>
		<path d="M240.183,96.366c-79.529,0-144,64.471-144,144s64.471,144,144,144s144-64.471,144-144S319.712,96.366,240.183,96.366z     M248.183,368.366v-40c0-4.418-3.582-8-8-8s-8,3.582-8,8v40c-64.423-4.118-115.697-55.564-119.6-120h39.6c4.418,0,8-3.582,8-8    s-3.582-8-8-8h-39.6c4.22-67.396,60.072-119.921,127.6-120c70.692-2.209,129.791,53.308,132,124    C374.392,307.059,318.876,366.157,248.183,368.366z" data-original="#000000" class="hovered-path active-path" data-old_color="#000000" fill="#FFA500"/>
	</g>
</g><g>
	<g>
		<path d="M440.183,384.366c-4.418,0-8,3.582-8,8c0,22.091-17.909,40-40,40c-4.418,0-8,3.582-8,8s3.582,8,8,8    c30.928,0,56-25.072,56-56C448.183,387.948,444.602,384.366,440.183,384.366z" data-original="#000000" class="hovered-path active-path" data-old_color="#000000" fill="#FFA500"/>
	</g>
</g><g>
	<g>
		<path d="M472.183,416.366c-4.418,0-8,3.582-8,8c0,22.091-17.909,40-40,40c-4.418,0-8,3.582-8,8s3.582,8,8,8    c30.928,0,56-25.072,56-56C480.183,419.948,476.602,416.366,472.183,416.366z" data-original="#000000" class="hovered-path active-path" data-old_color="#000000" fill="#FFA500"/>
	</g>
</g><g>
	<g>
		<path d="M88.183,432.366c-22.091,0-40-17.909-40-40c0-4.418-3.582-8-8-8s-8,3.582-8,8c0,30.928,25.072,56,56,56    c4.418,0,8-3.582,8-8S92.602,432.366,88.183,432.366z" data-original="#000000" class="hovered-path active-path" data-old_color="#000000" fill="#FFA500"/>
	</g>
</g><g>
	<g>
		<path d="M56.183,464.366c-22.091,0-40-17.909-40-40c0-4.418-3.582-8-8-8s-8,3.582-8,8c0,30.928,25.072,56,56,56    c4.418,0,8-3.582,8-8S60.602,464.366,56.183,464.366z" data-original="#000000" class="hovered-path active-path" data-old_color="#000000" fill="#FFA500"/>
	</g>
</g><g>
	<g>
		<path d="M392.183,32.366c-4.418,0-8,3.582-8,8s3.582,8,8,8c22.091,0,40,17.909,40,40c0,4.418,3.582,8,8,8s8-3.582,8-8    C448.183,57.438,423.111,32.366,392.183,32.366z" data-original="#000000" class="hovered-path active-path" data-old_color="#000000" fill="#FFA500"/>
	</g>
</g><g>
	<g>
		<path d="M424.183,0.366c-4.418,0-8,3.582-8,8s3.582,8,8,8c22.091,0,40,17.909,40,40c0,4.418,3.582,8,8,8s8-3.582,8-8    C480.183,25.439,455.111,0.366,424.183,0.366z" data-original="#000000" class="hovered-path active-path" data-old_color="#000000" fill="#FFA500"/>
	</g>
</g><g>
	<g>
		<path d="M344.183,216.366h-80v-80c0-4.418-3.582-8-8-8h-32c-4.418,0-8,3.582-8,8v120c0,4.418,3.582,8,8,8h120c4.418,0,8-3.582,8-8    v-32C352.183,219.948,348.602,216.366,344.183,216.366z M248.183,248.366h-16v-16h16V248.366z M248.183,216.366h-16v-72h16    V216.366z M336.183,248.366h-72v-16h72V248.366z" data-original="#000000" class="hovered-path active-path" data-old_color="#000000" fill="#FFA500"/>
	</g>
</g></g> </svg>
