<?xml version="1.0"?>
<svg xmlns="http://www.w3.org/2000/svg" xmlns:xlink="http://www.w3.org/1999/xlink" version="1.1" id="Layer_1" x="0px" y="0px" viewBox="0 0 512 512" style="enable-background:new 0 0 512 512;" xml:space="preserve" width="20px" height="20px"><g><g>
	<g>
		<g>
			<path d="M163.885,43.198c2-2,3.125-4.719,3.125-7.542c0-2.833-1.125-5.542-3.125-7.542C145.74,9.979,121.635,0,96,0     C43.063,0,0,43.063,0,96c0,25.635,9.979,49.74,28.115,67.885c2,2,4.708,3.125,7.542,3.125s5.542-1.125,7.542-3.125     L163.885,43.198z M21.333,96c0-41.167,33.5-74.667,74.667-74.667c16.344,0,31.885,5.219,44.729,14.854L36.188,140.729     C26.552,127.885,21.333,112.344,21.333,96z" data-original="#000000" class="active-path" data-old_color="#000000" fill="#DC1B1B"/>
			<path d="M426.135,163.885c2,2,4.719,3.125,7.542,3.125c2.833,0,5.542-1.125,7.542-3.125     c18.135-18.146,28.115-42.25,28.115-67.885c0-52.938-43.063-96-96-96c-25.635,0-49.74,9.979-67.885,28.115     c-2,2-3.125,4.708-3.125,7.542c0,2.823,1.125,5.542,3.125,7.542L426.135,163.885z M373.333,21.333     C414.5,21.333,448,54.833,448,96c0,16.344-5.219,31.885-14.854,44.729L328.604,36.188     C341.448,26.552,356.99,21.333,373.333,21.333z" data-original="#000000" class="active-path" data-old_color="#000000" fill="#DC1B1B"/>
			<path d="M424.701,281.375c1.168-8.581,1.966-17.1,1.966-25.375c0-105.865-86.135-192-192-192s-192,86.135-192,192     c0,47.589,17.506,91.098,46.285,124.681l-24.421,74.673c-1.542,4.688,0.344,9.823,4.552,12.406     c1.729,1.052,3.656,1.573,5.583,1.573c2.75,0,5.49-1.063,7.542-3.125l48.829-48.829C160.969,436.668,196.49,448,234.667,448     c17.483,0,34.922-2.603,52.021-7.461C304.582,482.504,346.24,512,394.667,512C459.365,512,512,459.365,512,394.667     C512,340.365,474.87,294.694,424.701,281.375z M98.677,419.573l7.09-21.693c2.552,2.322,5.049,4.697,7.724,6.879L98.677,419.573z      M277.333,394.667c0,8.641,1.003,17.042,2.784,25.155c-14.983,4.189-30.18,6.845-45.451,6.845C140.563,426.667,64,350.104,64,256     S140.563,85.333,234.667,85.333S405.333,161.896,405.333,256c0,7.083-0.672,14.405-1.645,21.79     c-2.988-0.229-5.977-0.457-9.022-0.457c-34.198,0-64.93,14.797-86.395,38.217c-0.513-1.107-1.141-2.18-2.053-3.092     l-51.271-51.262c0.441-1.706,1.052-3.354,1.052-5.197c0-7.792-4.409-14.329-10.667-18.053v-99.28     c0-5.896-4.771-10.667-10.667-10.667c-5.896,0-10.667,4.771-10.667,10.667v99.28c-6.258,3.724-10.667,10.262-10.667,18.053     c0,11.76,9.573,21.333,21.333,21.333c1.842,0,3.492-0.612,5.199-1.053l51.27,51.262c1.566,1.566,3.529,2.349,5.552,2.738     C284.488,348.783,277.333,370.895,277.333,394.667z M394.667,490.667c-42.637,0-78.44-28.12-90.927-66.65     c-0.017-0.051-0.004-0.102-0.021-0.152c-0.013-0.038-0.044-0.06-0.057-0.098c-2.965-9.237-4.995-18.891-4.995-29.1     c0-22.622,8.19-43.164,21.328-59.589l134.26,134.26C437.831,482.477,417.289,490.667,394.667,490.667z M469.339,454.255     l-134.26-134.26c16.424-13.138,36.966-21.328,59.589-21.328c5.496,0,10.805,0.732,16.051,1.622     c0.012,0.003,0.021,0.01,0.033,0.013c0.03,0.005,0.057-0.006,0.087-0.001c45.224,7.741,79.829,46.966,79.829,94.366     C490.667,417.289,482.477,437.831,469.339,454.255z" data-original="#000000" class="active-path" data-old_color="#000000" fill="#DC1B1B"/>
		</g>
	</g>
</g></g> </svg>
